<?xml version="1.0" encoding="UTF-8"?><svg id="Layer_1" xmlns="http://www.w3.org/2000/svg" viewBox="0 0 917.15 284.56"><defs><style>.cls-1{font-family:LucidaSans-TypewriterBoldOblique, 'Lucida Sans Typewriter';font-size:100px;font-weight:700;letter-spacing:-.35em;}.cls-1,.cls-2,.cls-3{fill:#000;}.cls-1,.cls-3{font-style:italic;}.cls-2,.cls-4{stroke-width:0px;}.cls-4{fill:#c1272d;}.cls-3{font-family:LucidaSans-Typewriter, 'Lucida Sans Typewriter';font-size:48px;letter-spacing:0em;}</style></defs><g id="Black_on_white"><path class="cls-2" d="M77.52,219.48c-5.21-4.1-8.9-9.38-11.11-15.84-7.45-1.07-11.52-4.16-11.52-9.06,0-1.86.63-4.51,1.88-7.93l2.59-6.53,5.06-12.82c4.16-10.41,6.24-17.99,6.24-22.73,0-12.98-6.9-21.99-20.71-27.04,7.02-2.18,13.13-5.35,18.36-9.51,5.22-4.16,9.22-9.1,11.98-14.82,2.77-5.72,4.15-14.18,4.15-25.39l.12-12.84v-6.54c0-4.12.72-7.41,2.16-9.86,1.44-2.45,3.46-4.3,6.06-5.54,2.6-1.24,7.44-1.87,14.51-1.87h13.29l4.5-23.13h-15.63c-13.45,0-24.1,1.4-31.95,4.2-7.85,2.8-14.03,7.24-18.54,13.32-2.41,3.27-4.2,6.76-5.37,10.45-1.17,3.7-1.75,10.45-1.75,20.26l.58,17.29c0,9.34-1.23,16.14-3.69,20.38-2.46,4.24-6.05,7.32-10.77,9.23-4.72,1.91-11.26,2.86-19.61,2.86H4.68l-4.68,23.13h13.82c9.84,0,16.59,1.3,20.27,3.91,3.67,2.61,5.51,6.24,5.51,10.91s-1.57,10.38-4.7,17.62l-7.64,17.27c-4.23,9.72-6.35,17.19-6.35,22.4,0,8.48,3.31,14.89,9.93,19.25,6.62,4.35,18.22,6.53,34.81,6.53l30.59,1.05-1.11-.67c-7.26-1.78-13.13-4.42-17.6-7.94Z"/><path class="cls-2" d="M419.63,107.95c-9.88,0-16.67-1.31-20.35-3.93-3.69-2.62-5.53-6.28-5.53-10.97s1.57-10.44,4.72-17.71l7.67-17.36c4.25-9.69,6.37-17.2,6.37-22.52,0-8.52-3.32-14.97-9.97-19.35-6.65-4.38-18.3-6.57-34.96-6.57h-15.72l-4.77,23.22h13.4c11.91,0,17.87,3.09,17.87,9.26,0,1.95-.67,4.65-2.01,8.09l-2.48,6.56-5.2,12.89c-4.1,10.39-6.15,18.01-6.15,22.86,0,13.05,6.89,22.08,20.68,27.08-7.05,2.34-13.19,5.6-18.43,9.77-5.25,4.17-9.24,9.11-11.98,14.81-2.74,5.7-4.11,14.16-4.11,25.4l-.12,12.88-.12,6.56c0,4.14-.7,7.43-2.11,9.89-1.41,2.46-3.42,4.31-6.03,5.56-2.62,1.25-7.47,1.87-14.58,1.87h-.08c3.09,7.48,7.35,14.43,10.56,21.85,0,0,.96-.39,0,0,9.57-.58,14.74-.96,20.61-3.31,7.81-3.13,13.86-7.81,18.15-14.06,4.29-6.25,6.44-16.13,6.44-29.64l-.59-17.34c0-9.37,1.23-16.21,3.7-20.5,2.47-4.3,6.09-7.38,10.87-9.26,4.78-1.87,11.32-2.81,19.63-2.81h13.75l4.59-23.22h-13.76Z"/><path class="cls-4" d="M284.81,9.12c14.71,0,29.41-.02,44.12.04.92,0,1.84.61,2.76.93-.73,1.38-1.57,2.7-2.16,4.14-13.69,33.35-27.31,66.74-41.07,100.06-1.27,3.08-1.27,5.59,0,8.66,11.28,27.24,22.37,54.56,33.6,81.82,3.09,7.51,7.96,15.86,11.18,23.32-1,0-3.38-.01-4.3-.01-14.71.06-29.41.04-44.12.04-8.56-20.86-17.09-41.73-25.69-62.57-6.4-15.5-12.89-30.97-19.34-46.45,0-.32,0-.65,0-.97.69-1.43,1.45-2.83,2.05-4.3,14.34-34.9,28.66-69.8,42.99-104.71Z"/><path class="cls-4" d="M253.48,9.29l-43.8,219h-84.79c-20.42,0-35.14-3.55-44.17-10.65-9.03-7.1-13.54-17.76-13.54-31.96,0-15.88,4.08-30.83,12.22-44.84,8.15-14.01,19.73-24.93,34.75-32.78,15.01-7.84,35.51-11.76,61.49-11.76h16.74l17.33-87.01h43.76ZM186.58,125.45h-10.82c-10.38,0-20.14,1.68-29.28,5.03-9.14,3.35-16.65,9.69-22.53,19.01-5.88,9.32-8.82,18.37-8.82,27.15,0,4.83.92,8.88,2.74,12.13,1.83,3.26,4.89,5.79,9.19,7.62,4.3,1.82,13.76,2.74,28.39,2.74h16.46l14.67-73.69Z"/><text class="cls-1" transform="translate(97.23 86.19)"><tspan x="0" y="0">```</tspan></text><text class="cls-3" transform="translate(18.16 272.78)"><tspan x="0" y="0">Klein Projects</tspan></text></g></svg>