<?xml version="1.0" encoding="UTF-8"?><svg id="Layer_1" xmlns="http://www.w3.org/2000/svg" viewBox="0 0 917.15 284.56"><defs><style>.cls-1{fill:#cb0000;}.cls-1,.cls-2{stroke-width:0px;}.cls-3{font-family:LucidaSans-Typewriter, 'Lucida Sans Typewriter';font-size:48px;letter-spacing:0em;}.cls-3,.cls-4{font-style:italic;}.cls-3,.cls-4,.cls-2{fill:#fff;}.cls-4{font-family:LucidaSans-TypewriterBoldOblique, 'Lucida Sans Typewriter';font-size:100px;font-weight:700;letter-spacing:-.35em;}</style></defs><g id="White_on_black"><text class="cls-3" transform="translate(500.76 274.72)"><tspan x="0" y="0">Klein Projects</tspan></text><path class="cls-2" d="M564.79,218.83s-.07-.04-.1-.06c-.29-.2-.58-.4-.86-.61-.28-.21-.56-.41-.83-.63-1.16-.91-2.22-1.88-3.19-2.89-.97-1.02-1.85-2.09-2.65-3.21-.81-1.13-1.54-2.31-2.21-3.56-.67-1.25-1.28-2.56-1.85-3.94-2.33-.16-4.4-.48-6.19-.95-1.79-.48-3.31-1.11-4.53-1.9-1.22-.79-2.16-1.73-2.79-2.81-.63-1.09-.95-2.32-.95-3.7,0-.47.04-.98.12-1.54.08-.56.2-1.18.35-1.84.16-.66.35-1.37.59-2.13.24-.76.51-1.56.82-2.42l.65-1.63.65-1.63.65-1.63.65-1.63,1.27-3.21,1.27-3.21,1.27-3.21,1.27-3.21c1.04-2.6,1.95-5.03,2.73-7.28.78-2.25,1.43-4.32,1.95-6.21.52-1.89.91-3.61,1.17-5.15.26-1.54.39-2.9.39-4.09,0-3.24-.43-6.24-1.29-8.99-.86-2.75-2.16-5.25-3.88-7.5-1.73-2.25-3.88-4.26-6.47-6.02s-5.61-3.27-9.06-4.53c1.75-.54,3.45-1.15,5.09-1.82,1.64-.67,3.23-1.4,4.76-2.19,1.53-.79,3-1.65,4.42-2.56,1.42-.92,2.78-1.9,4.09-2.94,1.31-1.04,2.53-2.13,3.69-3.27,1.15-1.14,2.23-2.32,3.23-3.56,1-1.24,1.92-2.52,2.77-3.85.85-1.33,1.61-2.71,2.31-4.14.69-1.43,1.3-3.03,1.82-4.8.52-1.77.95-3.72,1.3-5.83.35-2.12.61-4.4.78-6.86.17-2.46.26-5.09.26-7.89l.03-3.21.03-3.21.03-3.21.03-3.21v-6.54c0-1.03.04-2.01.13-2.94.09-.93.22-1.8.4-2.62.18-.82.4-1.59.67-2.31.27-.72.58-1.38.94-2,.36-.61.76-1.19,1.19-1.73.43-.54.9-1.04,1.41-1.5.51-.46,1.05-.89,1.62-1.27.58-.39,1.19-.74,1.84-1.05.65-.31,1.44-.58,2.37-.82s2-.43,3.21-.58,2.56-.27,4.05-.35c1.49-.08,3.12-.12,4.89-.12h13.29l1.13-5.78,1.13-5.78,1.13-5.78,1.13-5.78h-15.63c-3.36,0-6.55.09-9.56.26-3.01.18-5.85.44-8.51.79-2.66.35-5.15.79-7.46,1.31-2.31.53-4.45,1.14-6.41,1.84-1.96.7-3.82,1.5-5.58,2.41-1.75.91-3.4,1.91-4.95,3.02s-2.99,2.32-4.32,3.64c-1.34,1.31-2.57,2.73-3.69,4.25-.6.82-1.17,1.65-1.69,2.49-.52.84-1.01,1.7-1.46,2.57s-.86,1.76-1.22,2.65c-.37.9-.7,1.81-.99,2.73-.29.92-.55,2.04-.77,3.35-.22,1.31-.4,2.8-.55,4.49-.15,1.69-.25,3.57-.33,5.64-.07,2.07-.11,4.33-.11,6.79l.15,4.32.15,4.32.15,4.32.15,4.32c0,2.34-.08,4.51-.23,6.53s-.38,3.88-.69,5.57c-.31,1.7-.69,3.24-1.15,4.62s-1,2.6-1.61,3.66c-.61,1.06-1.3,2.05-2.06,2.96-.76.91-1.58,1.76-2.48,2.53s-1.87,1.46-2.9,2.09-2.15,1.17-3.33,1.65c-1.18.48-2.47.89-3.88,1.25-1.41.36-2.93.66-4.56.89-1.63.24-3.38.42-5.24.54-1.86.12-3.83.18-5.92.18h-13.7l-1.17,5.78-1.17,5.78-1.17,5.78-1.17,5.78h13.82c2.46,0,4.73.08,6.8.24s3.96.41,5.64.73,3.18.73,4.49,1.22c1.3.49,2.41,1.06,3.33,1.71.92.65,1.72,1.37,2.41,2.15.69.78,1.26,1.62,1.72,2.53s.8,1.88,1.03,2.92c.23,1.04.34,2.14.34,3.31s-.1,2.34-.29,3.64c-.2,1.3-.49,2.68-.88,4.15-.39,1.47-.88,3.02-1.47,4.66-.59,1.64-1.27,3.36-2.06,5.17l-1.91,4.32-1.91,4.32-1.91,4.32-1.91,4.32c-1.06,2.43-1.98,4.72-2.78,6.87s-1.45,4.16-1.98,6.02c-.53,1.87-.93,3.59-1.19,5.18-.26,1.58-.4,3.03-.4,4.33,0,2.12.21,4.11.62,5.97.41,1.86,1.03,3.59,1.86,5.2.83,1.6,1.86,3.08,3.1,4.43,1.24,1.35,2.69,2.56,4.34,3.65,1.65,1.09,3.62,2.04,5.9,2.86,2.28.82,4.87,1.5,7.77,2.04,2.9.54,6.11.95,9.64,1.23,3.52.27,7.36.41,11.51.41l8.46.02,8.46.02,8.46.02,8.46.02-2.54-1.02c-6.45-1.7-11.75-4.11-15.9-7.25Z"/><path class="cls-2" d="M903.38,106.91c-9.88,0-16.67-1.31-20.35-3.93-3.69-2.62-5.53-6.28-5.53-10.97s1.57-10.44,4.72-17.71l7.67-17.36c4.25-9.69,6.37-17.2,6.37-22.52,0-8.52-3.32-14.97-9.97-19.35-6.65-4.38-18.3-6.57-34.96-6.57h-15.72l-4.77,23.22h13.4c11.91,0,17.87,3.09,17.87,9.26,0,1.95-.67,4.65-2.01,8.09l-2.48,6.56-5.2,12.89c-4.1,10.39-6.15,18.01-6.15,22.86,0,13.05,6.89,22.08,20.68,27.08-7.05,2.34-13.19,5.6-18.43,9.77-5.25,4.17-9.24,9.11-11.98,14.81-2.74,5.7-4.11,14.16-4.11,25.4l-.12,12.88-.12,6.56c0,4.14-.7,7.43-2.11,9.89-1.41,2.46-3.42,4.31-6.03,5.56-2.62,1.25-7.47,1.87-14.58,1.87h-.08c3.09,7.48,6.39,14.85,9.59,22.27-.53.19,1.59-.73,0-.03,9.57-.58,15.7-1.35,21.57-3.7,7.81-3.13,13.86-7.81,18.15-14.06,4.29-6.25,6.44-16.13,6.44-29.64l-.59-17.34c0-9.37,1.23-16.21,3.7-20.5,2.47-4.3,6.09-7.38,10.87-9.26,4.78-1.87,11.32-2.81,19.63-2.81h13.75l4.59-23.22h-13.76Z"/><path class="cls-1" d="M768.57,9.09c14.71,0,29.41-.02,44.12.04.92,0,1.84.61,2.76.93-.73,1.38-1.57,2.7-2.16,4.14-13.69,33.35-27.31,66.74-41.07,100.06-1.27,3.08-1.27,5.59,0,8.66,11.28,27.24,22.37,54.56,33.6,81.82,3.09,7.51,6.42,14.92,9.63,22.37-.92.32-1.84.93-2.76.93-14.71.06-29.41.04-44.12.04-8.56-20.86-17.09-41.73-25.69-62.57-6.4-15.5-12.89-30.97-19.34-46.45,0-.32,0-.65,0-.97.69-1.43,1.45-2.83,2.05-4.3,14.34-34.9,28.66-69.8,42.99-104.71Z"/><text class="cls-4" transform="translate(580.99 86.15)"><tspan x="0" y="0">```</tspan></text><path class="cls-1" d="M740.55,7.92l-43.8,219h-84.79c-20.42,0-35.14-3.55-44.17-10.65s-13.54-17.76-13.54-31.96c0-15.88,4.08-30.83,12.22-44.84,8.15-14.01,19.73-24.93,34.75-32.78,15.01-7.84,35.51-11.76,61.49-11.76h16.74l17.33-87.01h43.76ZM673.65,124.08h-10.82c-10.38,0-20.14,1.68-29.28,5.03-9.14,3.35-16.65,9.69-22.53,19.01-5.88,9.32-8.82,18.37-8.82,27.15,0,4.83.92,8.88,2.74,12.13,1.83,3.26,4.89,5.79,9.19,7.62,4.3,1.82,13.76,2.74,28.39,2.74h16.46l14.67-73.69Z"/></g></svg>